<?xml version="1.0" standalone="no"?>
<!DOCTYPE svg PUBLIC "-//W3C//DTD SVG 20010904//EN"
 "http://www.w3.org/TR/2001/REC-SVG-20010904/DTD/svg10.dtd">
<svg version="1.0" xmlns="http://www.w3.org/2000/svg"
 width="1536.000000pt" height="2150.000000pt" viewBox="0 0 1536.000000 2150.000000"
 preserveAspectRatio="xMidYMid meet">

<g transform="translate(0.000000,2150.000000) scale(0.100000,-0.100000)"
fill="#000000" stroke="none">
<path d="M0 11855 l0 -9645 7680 0 7680 0 0 9645 0 9645 -7680 0 -7680 0 0
-9645z m5730 8368 c11 -10 20 -25 20 -35 0 -10 5 -18 10 -18 6 0 10 -9 10 -19
0 -11 6 -26 14 -33 7 -8 17 -29 21 -46 3 -18 11 -32 15 -32 5 0 12 -16 16 -35
3 -19 10 -35 15 -35 5 0 9 -7 9 -15 0 -8 4 -15 9 -15 5 0 12 -16 16 -36 3 -20
13 -43 21 -51 8 -8 14 -23 14 -34 0 -10 4 -19 10 -19 5 0 12 -16 16 -35 3 -19
10 -35 14 -35 5 0 11 -13 15 -30 4 -16 11 -30 16 -30 5 0 9 -9 9 -19 0 -11 5
-21 10 -23 6 -2 13 -20 17 -41 l6 -37 -57 0 c-51 0 -56 2 -62 25 -3 14 -10 25
-14 25 -4 0 -11 16 -14 35 -4 19 -11 35 -16 35 -6 0 -10 9 -10 20 0 11 -4 20
-10 20 -5 0 -12 11 -16 25 l-6 25 -150 0 c-141 0 -150 -1 -155 -20 -3 -11 -9
-20 -14 -20 -5 0 -9 -9 -9 -19 0 -11 -6 -26 -13 -33 -8 -7 -17 -26 -21 -41
-11 -46 -49 -77 -94 -77 -44 0 -61 20 -37 43 7 8 17 31 20 51 4 20 11 36 15
36 5 0 12 14 15 32 4 17 14 38 21 46 8 7 14 22 14 33 0 10 5 19 10 19 6 0 10
9 10 20 0 11 4 20 9 20 5 0 12 14 16 30 4 17 11 30 15 30 5 0 12 16 16 35 3
19 10 35 15 35 5 0 9 9 9 19 0 11 6 26 14 33 7 8 17 29 21 46 3 18 11 32 16
32 5 0 9 9 9 20 0 11 5 20 10 20 6 0 10 9 10 19 0 11 7 26 15 35 8 8 15 19 15
25 0 18 78 13 100 -6z m1371 -5 c11 -11 19 -29 19 -40 0 -10 5 -18 10 -18 6 0
10 -9 10 -19 0 -11 6 -26 14 -33 7 -8 17 -29 21 -46 3 -18 10 -32 15 -32 4 0
11 -17 15 -37 4 -20 15 -44 24 -53 10 -8 22 -30 25 -48 4 -17 11 -32 16 -32 4
0 11 -16 14 -35 4 -19 11 -35 16 -35 5 0 12 -16 16 -35 3 -19 10 -35 15 -35 5
0 9 -9 9 -19 0 -11 7 -26 15 -35 8 -8 15 -21 15 -29 0 -9 4 -17 10 -19 5 -1
12 -18 16 -35 l7 -33 -56 0 c-47 0 -57 3 -62 20 -3 11 -10 20 -15 20 -4 0 -11
16 -14 35 -4 19 -11 35 -16 35 -6 0 -10 7 -10 16 0 8 -7 22 -15 30 -8 9 -15
24 -15 35 0 18 -9 19 -155 19 -131 0 -155 -2 -155 -15 0 -8 -4 -15 -9 -15 -5
0 -12 -13 -16 -30 -4 -16 -10 -30 -15 -30 -4 0 -11 -16 -14 -35 -4 -19 -11
-35 -16 -35 -6 0 -10 -5 -10 -11 0 -23 -30 -39 -76 -39 l-46 0 6 33 c4 17 11
34 16 35 6 2 10 12 10 22 0 10 6 25 14 33 8 8 18 31 21 51 4 20 11 36 15 36 5
0 11 14 15 30 4 17 11 30 16 30 5 0 9 7 9 15 0 8 4 15 9 15 5 0 12 16 16 36 3
20 13 43 21 51 8 8 14 23 14 34 0 10 4 19 9 19 5 0 12 16 15 35 4 19 11 35 16
35 6 0 10 9 10 19 0 11 7 26 15 35 8 8 15 22 15 30 0 9 5 16 10 16 6 0 10 8
10 18 0 57 92 86 131 40z m1305 -3 c3 -14 10 -25 14 -25 4 0 11 -16 14 -35 4
-19 11 -35 16 -35 6 0 10 -7 10 -16 0 -8 7 -22 15 -30 8 -9 15 -24 15 -35 0
-10 4 -19 9 -19 5 0 12 -16 15 -35 4 -19 11 -35 16 -35 6 0 10 -9 10 -19 0
-11 6 -26 14 -33 7 -8 17 -30 21 -49 4 -18 15 -41 25 -49 10 -8 21 -30 24 -48
4 -17 11 -32 16 -32 4 0 11 -16 15 -36 3 -20 13 -43 21 -51 8 -8 14 -23 14
-34 0 -10 5 -19 11 -19 6 0 4 -7 -5 -15 -23 -23 -85 -19 -107 7 -11 11 -19 27
-19 35 0 7 -4 13 -10 13 -5 0 -10 9 -10 19 0 11 -6 26 -13 33 -8 7 -17 27 -21
43 -4 16 -13 33 -19 37 -14 9 -279 11 -301 2 -9 -3 -16 -15 -16 -25 0 -10 -4
-19 -9 -19 -5 0 -12 -16 -15 -35 -4 -19 -11 -35 -16 -35 -6 0 -10 -9 -10 -19
0 -11 -7 -26 -15 -35 -8 -8 -15 -19 -15 -25 0 -7 -23 -11 -55 -11 -48 0 -55 2
-55 20 0 11 4 20 9 20 5 0 12 16 15 35 4 19 11 35 16 35 6 0 10 9 10 20 0 11
4 20 9 20 5 0 12 14 16 30 4 17 11 30 16 30 5 0 9 9 9 19 0 11 6 26 14 34 8 8
18 31 21 51 4 20 11 36 16 36 4 0 11 16 15 35 3 19 10 35 15 35 5 0 9 7 9 16
0 8 7 22 15 30 8 9 15 24 15 35 0 10 4 19 9 19 5 0 12 14 16 30 4 17 10 30 15
30 4 0 11 16 14 35 4 19 11 35 16 35 5 0 12 9 15 20 5 16 15 20 55 20 45 0 50
-3 56 -25z m2404 15 c0 -5 9 -10 21 -10 54 0 133 -33 171 -72 21 -21 38 -44
38 -50 0 -6 9 -19 20 -28 14 -12 23 -36 27 -69 3 -28 10 -51 14 -51 5 0 9 -25
9 -55 0 -30 -4 -55 -9 -55 -4 0 -11 -23 -14 -51 -4 -33 -13 -57 -27 -69 -11
-9 -20 -22 -20 -28 0 -6 -17 -28 -38 -50 -39 -40 -105 -72 -147 -72 -14 0 -25
-4 -25 -10 0 -6 -42 -10 -105 -10 -63 0 -105 4 -105 10 0 6 -12 10 -27 10 -16
0 -41 7 -57 15 -15 8 -32 15 -38 15 -12 0 -88 78 -88 92 0 6 -10 19 -22 30
-22 19 -23 26 -23 173 0 147 1 154 23 173 12 11 22 25 22 31 0 6 7 14 15 17 8
4 15 11 15 16 0 31 116 88 178 88 12 0 22 5 22 10 0 6 35 10 85 10 50 0 85 -4
85 -10z m-5803 -22 c36 -6 67 -18 70 -25 3 -7 11 -13 19 -13 8 0 23 -9 33 -19
11 -11 29 -24 40 -31 12 -6 21 -17 21 -25 0 -8 4 -15 10 -15 5 0 13 -12 16
-27 4 -16 12 -31 18 -35 16 -11 15 -220 -2 -226 -6 -2 -12 -16 -12 -31 0 -14
-9 -34 -20 -44 -11 -9 -20 -23 -20 -31 0 -8 -9 -17 -19 -21 -11 -3 -22 -12
-25 -20 -3 -8 -12 -15 -20 -15 -8 0 -21 -6 -28 -13 -23 -23 -80 -38 -170 -44
-49 -3 -88 -10 -88 -14 0 -5 -52 -9 -115 -9 l-115 0 0 335 0 335 171 0 c95 0
201 -5 236 -12z m1663 -19 c0 -52 -16 -59 -139 -59 l-111 0 0 -274 c0 -151 -3
-281 -6 -290 -4 -12 -20 -16 -54 -16 -34 0 -50 4 -54 16 -3 9 -6 139 -6 290
l0 274 -119 0 c-130 0 -131 1 -131 61 l0 29 310 0 310 0 0 -31z m950 -245 c0
-225 3 -278 14 -290 11 -11 48 -14 165 -14 98 0 151 4 151 10 0 6 6 5 14 -2 8
-7 10 -14 5 -16 -5 -2 -9 -21 -9 -43 l0 -39 -225 0 -225 0 0 335 0 335 55 0
55 0 0 -276z m1638 257 c17 -7 32 -17 32 -22 0 -5 7 -9 15 -9 8 0 17 -11 21
-25 3 -14 10 -25 15 -25 14 0 11 -119 -3 -136 -31 -37 -53 -54 -70 -54 -10 0
-18 -7 -18 -15 0 -8 7 -15 15 -15 33 0 95 -50 95 -77 0 -7 5 -13 10 -13 6 0
10 -25 10 -55 0 -30 -4 -55 -10 -55 -5 0 -10 -9 -10 -19 0 -11 -6 -26 -14 -33
-61 -58 -109 -78 -188 -78 -27 0 -48 -4 -48 -10 0 -6 -54 -10 -141 -10 -108 0
-144 3 -155 14 -12 12 -14 71 -14 336 l0 322 213 -4 c137 -3 224 -9 245 -17z
m992 -26 l0 -45 -170 0 -170 0 0 -100 0 -100 160 0 160 0 0 -45 0 -45 -154 0
c-136 0 -155 -2 -160 -17 -4 -9 -7 -69 -6 -133 1 -63 1 -121 1 -127 -1 -9 -19
-13 -56 -13 l-55 0 0 335 0 335 225 0 225 0 0 -45z m1428 30 c29 -9 52 -20 52
-26 0 -5 11 -15 25 -21 16 -7 27 -22 31 -45 3 -18 10 -33 15 -33 5 0 9 -20 9
-45 0 -25 -4 -45 -10 -45 -5 0 -10 -9 -10 -20 0 -24 -54 -78 -87 -86 -13 -4
-23 -10 -23 -15 0 -5 -7 -9 -15 -9 -8 0 -15 -4 -15 -10 0 -5 5 -10 10 -10 6 0
10 -7 10 -15 0 -9 7 -18 15 -21 8 -4 15 -13 15 -20 0 -8 6 -17 14 -20 8 -3 17
-16 20 -29 3 -13 15 -26 25 -30 11 -3 22 -19 26 -35 4 -17 11 -30 16 -30 5 0
13 -8 16 -17 4 -10 13 -24 20 -31 29 -29 15 -42 -43 -42 -46 0 -60 4 -75 22
-11 11 -19 27 -19 33 0 7 -7 15 -15 19 -8 3 -15 12 -15 21 0 8 -4 15 -10 15
-5 0 -12 11 -16 25 -3 13 -15 27 -25 30 -10 4 -19 12 -19 19 0 11 -10 26 -50
74 -7 7 -37 12 -80 12 l-70 0 0 -119 c0 -66 -3 -126 -6 -135 -9 -23 -99 -23
-108 0 -3 9 -6 159 -6 335 l0 319 173 0 c127 0 187 -4 225 -15z m-8090 -991
c4 -6 19 -14 35 -18 25 -6 39 -26 18 -26 -5 0 -12 -13 -16 -30 -5 -25 -12 -30
-35 -30 -16 0 -30 6 -32 13 -4 9 -37 12 -123 12 -86 0 -119 -3 -122 -12 -3 -7
-11 -13 -19 -13 -8 0 -23 -9 -33 -19 -11 -11 -29 -24 -40 -31 -12 -6 -21 -17
-21 -25 0 -7 -6 -15 -12 -17 -18 -6 -18 -247 -1 -268 83 -98 99 -105 237 -105
61 0 130 3 154 8 l42 7 0 -44 c0 -46 -11 -56 -67 -56 -13 0 -23 -4 -23 -10 0
-6 -42 -10 -105 -10 -58 0 -105 4 -105 9 0 5 -25 12 -56 16 -33 4 -57 12 -61
21 -3 8 -11 14 -19 14 -17 0 -94 73 -94 89 0 6 -4 11 -9 11 -5 0 -12 12 -16
27 -3 15 -11 31 -17 34 -14 9 -15 239 -1 247 5 4 13 19 17 35 3 15 11 27 16
27 6 0 10 6 10 13 1 6 15 23 31 37 17 14 41 35 54 47 13 11 38 24 55 28 16 4
30 10 30 15 0 14 54 18 193 16 77 -1 131 -6 135 -12z m512 1 c0 -8 4 -15 9
-15 5 0 12 -13 16 -30 4 -16 10 -30 15 -30 4 0 11 -16 14 -35 4 -19 11 -35 16
-35 5 0 12 -16 16 -35 3 -19 10 -35 15 -35 5 0 9 -7 9 -15 0 -8 5 -15 10 -15
6 0 10 -9 10 -19 0 -11 6 -26 14 -34 8 -8 18 -31 21 -51 4 -20 11 -36 16 -36
4 0 11 -16 15 -35 3 -19 10 -35 14 -35 5 0 11 -13 15 -30 4 -16 11 -30 16 -30
5 0 9 -7 9 -16 0 -8 7 -22 15 -30 8 -9 15 -24 15 -35 0 -10 5 -19 10 -19 6 0
10 -9 10 -20 0 -17 -7 -20 -52 -20 -63 0 -74 6 -84 45 -4 16 -13 36 -21 43 -7
7 -13 22 -13 33 0 10 -4 19 -10 19 -5 0 -10 9 -10 19 0 10 -7 22 -16 25 -22 9
-287 7 -301 -2 -6 -4 -15 -21 -19 -37 -4 -16 -13 -36 -21 -43 -7 -7 -13 -22
-13 -33 0 -10 -4 -19 -9 -19 -5 0 -12 -11 -15 -25 -6 -24 -10 -25 -74 -24 -37
0 -62 3 -55 6 7 2 15 20 19 39 3 19 10 34 14 34 5 0 11 14 15 30 4 17 11 30
16 30 5 0 9 9 9 19 0 11 7 26 15 35 8 8 15 22 15 30 0 9 4 16 10 16 5 0 12 16
16 35 3 19 10 35 15 35 5 0 9 9 9 19 0 11 6 26 14 33 7 8 17 29 21 46 3 18 10
32 15 32 4 0 11 16 14 35 4 19 11 35 16 35 6 0 10 7 10 15 0 8 4 15 9 15 5 0
12 18 16 40 4 22 11 40 16 40 5 0 11 11 15 25 6 23 11 25 60 25 41 0 54 -4 54
-15z m1639 -2 c3 -6 20 -13 36 -18 17 -4 25 -9 18 -12 -7 -2 -15 -20 -19 -39
-6 -31 -10 -34 -39 -34 -18 0 -35 6 -37 13 -3 8 -35 12 -114 12 -106 0 -111
-1 -137 -27 -15 -15 -27 -38 -27 -53 0 -34 45 -79 95 -95 22 -7 42 -16 45 -19
3 -4 28 -12 55 -19 28 -7 51 -17 53 -22 2 -5 18 -12 37 -16 31 -6 49 -18 85
-61 10 -12 15 -40 15 -89 0 -77 6 -67 -83 -143 -13 -11 -44 -23 -68 -27 -24
-3 -44 -10 -44 -15 0 -5 -45 -9 -100 -9 -60 0 -100 4 -100 10 0 6 -15 10 -34
10 -18 0 -47 5 -65 11 -27 10 -31 15 -31 49 0 21 6 40 13 43 7 2 41 -2 77 -9
78 -16 218 -18 257 -3 15 6 36 19 45 29 19 20 25 80 8 80 -5 0 -10 7 -10 15 0
9 -8 19 -17 22 -10 4 -24 13 -31 20 -7 7 -31 16 -53 19 -21 4 -39 10 -39 14 0
4 -25 13 -56 20 -31 8 -58 20 -61 27 -3 7 -12 13 -19 13 -21 0 -74 57 -74 80
0 11 -4 20 -10 20 -5 0 -10 20 -10 45 0 25 5 45 10 45 6 0 10 8 10 17 0 20 66
83 87 83 7 0 13 4 13 9 0 5 12 12 28 15 46 8 284 -1 291 -11z m538 -3 c3 -11
9 -20 13 -20 4 0 11 -16 15 -36 3 -20 13 -43 21 -51 8 -8 14 -23 14 -34 0 -10
4 -19 10 -19 5 0 12 -16 16 -35 3 -19 10 -35 15 -35 5 0 9 -7 9 -15 0 -8 4
-15 10 -15 5 0 12 -16 16 -35 3 -19 10 -35 15 -35 5 0 9 -9 9 -19 0 -11 6 -26
14 -33 7 -8 17 -29 21 -46 3 -18 10 -32 15 -32 4 0 11 -17 15 -37 4 -20 15
-44 24 -53 10 -8 22 -30 25 -48 4 -17 12 -32 17 -32 5 0 9 -4 9 -10 0 -6 -28
-10 -65 -10 -65 0 -66 0 -71 30 -4 17 -10 30 -14 30 -5 0 -12 15 -16 32 -3 18
-15 40 -25 49 -11 9 -19 24 -19 33 0 14 -18 16 -155 16 l-155 0 -6 -25 c-3
-14 -10 -25 -15 -25 -5 0 -9 -9 -9 -19 0 -11 -7 -26 -15 -35 -8 -8 -15 -22
-15 -30 0 -9 -4 -16 -10 -16 -5 0 -10 -9 -10 -20 0 -18 -7 -20 -60 -20 -33 0
-60 4 -60 10 0 6 4 10 9 10 5 0 12 16 15 35 4 19 11 35 15 35 5 0 12 16 16 36
3 20 13 43 21 51 8 8 14 23 14 34 0 10 4 19 10 19 5 0 12 16 16 35 3 19 10 35
15 35 5 0 9 7 9 15 0 8 4 15 9 15 5 0 13 14 16 32 4 17 14 38 21 46 8 7 14 22
14 33 0 10 4 19 9 19 5 0 12 16 15 35 4 19 11 35 16 35 6 0 10 7 10 16 0 8 7
22 15 30 8 9 15 24 15 35 0 10 4 19 9 19 5 0 11 9 14 20 4 17 14 20 57 20 43
0 53 -3 57 -20z m6411 3 c4 -6 23 -14 42 -18 19 -5 29 -10 23 -12 -7 -3 -13
-10 -13 -17 0 -37 -72 -75 -83 -43 -3 9 -37 12 -127 12 -90 0 -124 -3 -128
-12 -2 -7 -10 -13 -18 -13 -8 0 -32 -18 -54 -40 -22 -22 -40 -46 -40 -54 0 -8
-6 -16 -12 -18 -9 -3 -13 -34 -13 -108 0 -74 4 -105 13 -107 6 -3 12 -13 12
-23 0 -10 7 -20 15 -24 8 -3 15 -10 15 -16 0 -24 54 -59 108 -71 54 -11 209
-7 275 7 26 6 27 5 27 -39 0 -42 -2 -45 -31 -51 -17 -3 -42 -6 -55 -6 -13 0
-24 -4 -24 -10 0 -6 -42 -10 -105 -10 -63 0 -105 4 -105 10 0 6 -11 10 -24 10
-28 0 -87 20 -102 34 -6 6 -28 24 -48 41 -20 16 -36 34 -36 38 0 5 -7 15 -15
23 -8 9 -15 24 -15 35 0 10 -4 19 -10 19 -5 0 -10 11 -10 25 0 14 -4 25 -10
25 -6 0 -10 33 -10 80 0 47 4 80 10 80 6 0 10 14 10 30 0 17 4 30 9 30 5 0 12
11 15 25 4 14 10 25 15 25 5 0 12 14 16 30 4 17 10 30 14 30 4 0 16 8 27 18
11 10 42 27 69 37 28 11 52 22 55 26 9 13 64 17 188 15 71 -2 127 -7 130 -13z
m-8058 -233 c0 -153 4 -240 10 -240 6 0 10 -8 10 -17 0 -27 45 -64 88 -74 50
-12 139 -11 182 1 38 11 80 53 80 82 0 10 5 18 10 18 6 0 10 85 10 235 l0 235
61 0 61 0 -4 -257 c-2 -194 -6 -257 -15 -261 -7 -2 -13 -10 -13 -18 0 -8 -9
-22 -20 -31 -11 -10 -20 -23 -20 -30 0 -7 -6 -13 -14 -13 -8 0 -21 -7 -30 -15
-19 -19 -60 -35 -92 -35 -13 0 -24 -4 -24 -10 0 -6 -35 -10 -85 -10 -50 0 -85
4 -85 10 0 6 -11 10 -24 10 -27 0 -77 17 -86 28 -3 4 -17 13 -32 19 -16 7 -28
19 -28 27 0 7 -7 16 -15 20 -8 3 -15 12 -15 20 0 8 -6 16 -12 18 -10 4 -14 68
-16 266 l-3 262 60 0 61 0 0 -240z m2160 -45 l0 -285 175 0 175 0 0 -45 0 -45
-235 0 -235 0 0 330 0 330 60 0 60 0 0 -285z m990 250 c0 -31 -3 -35 -27 -35
-16 0 -38 -3 -50 -6 l-23 -6 0 -249 c0 -215 2 -249 15 -249 8 0 15 -4 15 -10
0 -5 16 -10 35 -10 32 0 35 -2 35 -30 l0 -30 -160 0 -160 0 0 24 c0 24 16 36
52 36 46 0 48 13 48 273 0 263 1 257 -52 257 -25 0 -48 23 -48 49 0 20 5 21
160 21 l160 0 0 -35z m290 21 c0 -8 7 -16 15 -20 8 -3 15 -10 15 -16 0 -6 6
-17 13 -24 6 -8 19 -24 27 -36 8 -13 27 -35 43 -50 15 -15 27 -32 27 -38 0 -5
7 -12 15 -16 8 -3 15 -12 15 -21 0 -8 5 -15 10 -15 6 0 14 -8 17 -17 8 -21 19
-35 56 -72 15 -16 27 -33 27 -39 0 -5 7 -12 15 -16 8 -3 15 -12 15 -20 0 -7 7
-16 15 -20 8 -3 15 -12 15 -21 0 -8 4 -15 9 -15 5 0 13 -9 16 -20 19 -59 25 0
25 235 l0 255 55 0 55 0 0 -330 0 -330 -64 0 c-74 0 -96 6 -96 26 0 8 -7 17
-15 20 -8 4 -15 11 -15 18 0 6 -8 19 -17 28 -10 9 -29 30 -43 48 -14 17 -31
37 -37 45 -7 7 -13 19 -13 25 0 6 -7 13 -15 16 -8 4 -15 13 -15 20 0 8 -7 17
-15 20 -8 4 -15 11 -15 16 0 6 -12 23 -27 39 -37 37 -48 51 -56 72 -3 9 -11
17 -17 17 -5 0 -10 7 -10 15 0 9 -7 18 -15 21 -8 4 -15 12 -15 20 0 16 -39 39
-48 28 -4 -4 -1 -9 6 -11 9 -4 12 -62 12 -244 l0 -239 -60 0 -60 0 0 330 0
330 75 0 c57 0 75 -3 75 -14z m1180 -26 l0 -40 -170 0 -170 0 0 -110 0 -110
153 0 c91 0 158 -5 167 -11 11 -8 12 -12 3 -16 -7 -2 -13 -11 -13 -18 0 -7 6
-16 13 -18 9 -4 8 -8 -3 -16 -9 -6 -76 -11 -167 -11 l-153 0 0 -135 0 -135
-60 0 -60 0 0 330 0 330 230 0 230 0 0 -40z m600 0 l0 -40 -175 0 -175 0 0
-95 0 -95 155 0 155 0 0 -45 0 -45 -155 0 -155 0 0 -105 0 -105 159 0 c88 0
166 -3 175 -6 11 -4 16 -19 16 -45 l0 -39 -235 0 -235 0 0 330 0 330 235 0
235 0 0 -40z m510 31 c0 -5 17 -11 38 -14 21 -4 51 -19 69 -36 18 -16 37 -31
44 -33 7 -2 14 -34 17 -79 3 -60 1 -78 -12 -91 -9 -9 -16 -19 -16 -23 0 -16
-68 -66 -97 -71 -37 -7 -44 -29 -13 -39 11 -3 20 -13 20 -21 0 -8 7 -17 15
-20 8 -4 15 -12 15 -19 0 -10 9 -24 50 -72 5 -7 10 -17 10 -23 0 -5 5 -10 10
-10 6 0 14 -8 17 -17 7 -18 15 -29 41 -58 20 -22 15 -25 -50 -25 -69 1 -93 13
-103 51 -3 14 -17 33 -31 43 -13 11 -24 25 -24 32 0 8 -4 14 -10 14 -5 0 -10
7 -10 15 0 9 -7 18 -15 21 -8 3 -17 15 -21 26 -3 12 -18 32 -32 45 -20 19 -36
23 -83 23 l-59 0 0 -135 0 -135 -65 0 -65 0 0 330 0 330 180 0 c99 0 180 -4
180 -9z m810 -31 l0 -40 -170 0 -170 0 0 -95 0 -95 155 0 155 0 0 -45 0 -45
-155 0 -155 0 0 -105 0 -105 154 0 c85 0 161 -3 170 -6 11 -4 16 -19 16 -45
l0 -39 -235 0 -235 0 0 330 0 330 235 0 235 0 0 -40z m296 28 c29 -25 39 -36
54 -58 8 -12 23 -31 33 -42 9 -12 17 -27 17 -33 0 -7 7 -15 15 -19 8 -3 15
-12 15 -20 0 -8 9 -18 20 -21 11 -3 20 -12 20 -18 0 -7 8 -20 18 -28 9 -9 24
-26 32 -38 8 -13 23 -32 33 -43 9 -12 17 -27 17 -34 0 -7 9 -16 20 -19 11 -3
20 -13 20 -21 0 -8 7 -17 15 -20 8 -4 15 -13 15 -20 0 -8 7 -17 15 -20 8 -3
17 -14 20 -25 9 -27 25 -23 25 6 0 14 -4 25 -10 25 -6 0 -10 83 -10 230 l0
230 65 0 65 0 0 -330 0 -330 -66 0 c-69 0 -104 12 -104 34 0 8 -7 16 -15 20
-8 3 -15 12 -15 20 0 8 -9 18 -20 21 -11 3 -20 12 -20 19 0 13 -25 50 -52 74
-10 9 -18 22 -18 28 0 7 -7 14 -15 18 -8 3 -15 12 -15 20 0 8 -9 18 -20 21
-11 3 -20 12 -20 19 0 7 -8 22 -17 34 -10 11 -25 30 -33 43 -8 12 -23 29 -32
38 -10 8 -18 21 -18 28 0 6 -9 14 -19 18 -10 3 -21 15 -24 25 -3 11 -10 20
-16 20 -17 0 -15 -487 2 -493 6 -3 -18 -6 -55 -6 l-68 -1 0 330 0 330 65 0
c38 0 72 -5 81 -12z m1884 -28 l0 -40 -170 0 -170 0 0 -95 0 -95 155 0 155 0
0 -45 0 -45 -155 0 -155 0 0 -105 0 -105 154 0 c85 0 161 -3 170 -6 11 -4 16
-19 16 -45 l0 -39 -235 0 -235 0 0 330 0 330 235 0 235 0 0 -40z m-4632 -2509
c120 -89 139 -113 127 -152 -10 -30 -240 -199 -272 -199 -67 0 -86 79 -31 125
l33 28 -122 -5 c-115 -4 -125 -6 -195 -40 -51 -26 -92 -56 -137 -102 -35 -37
-74 -69 -86 -72 -48 -12 -85 34 -71 89 8 31 104 128 169 172 89 59 183 86 318
92 l117 6 -29 24 c-51 44 -31 123 32 123 19 0 64 -27 147 -89z m-1219 -85 c83
-23 159 -66 223 -124 31 -30 131 -144 221 -255 90 -111 179 -217 198 -236 86
-85 183 -121 327 -121 l96 0 -27 28 c-48 51 -26 122 38 122 11 0 76 -40 143
-90 129 -96 147 -120 119 -163 -24 -37 -237 -187 -265 -187 -65 0 -85 79 -31
124 l31 26 -89 0 c-155 0 -282 39 -386 118 -27 20 -124 129 -215 242 -228 280
-261 313 -349 357 -73 36 -77 37 -224 42 -133 6 -152 8 -165 26 -27 36 -13 93
26 109 27 11 274 -3 329 -18z m305 -537 c40 -31 35 -70 -16 -126 -59 -65 -74
-78 -142 -124 -91 -60 -167 -80 -332 -86 -135 -5 -142 -5 -163 16 -21 21 -28
65 -13 88 15 23 65 33 171 33 170 0 256 35 360 145 77 82 92 88 135 54z
m-1491 -25 c55 -19 125 -82 151 -137 73 -156 -19 -340 -190 -378 -182 -41
-356 132 -315 315 36 162 198 253 354 200z m51 -550 c135 -35 258 -125 338
-248 34 -53 63 -131 82 -218 l6 -28 -565 0 -565 0 0 23 c0 13 7 48 16 78 57
192 219 349 407 395 74 18 208 17 281 -2z m1892 -105 c602 -130 1024 -650
1024 -1263 0 -223 -44 -401 -152 -615 -62 -123 -69 -157 -46 -235 16 -54 184
-232 204 -216 24 21 73 29 111 18 31 -8 110 -81 436 -406 445 -444 451 -452
451 -571 -1 -153 -114 -271 -262 -273 -125 -1 -105 -17 -569 446 l-423 421 0
50 c0 28 6 60 14 71 14 19 9 26 -72 107 -143 142 -193 149 -379 57 -226 -112
-364 -145 -603 -145 -235 0 -382 34 -586 136 -357 178 -620 532 -690 929 -21
122 -22 326 -1 446 99 559 555 992 1119 1064 111 14 310 4 424 -21z m-2155
-1045 c98 -49 158 -161 145 -268 -23 -184 -218 -289 -383 -206 -158 79 -200
277 -87 408 83 97 211 123 325 66z m-6 -529 c202 -42 371 -198 429 -394 9 -30
16 -65 16 -78 l0 -23 -561 0 -561 0 7 48 c17 112 102 255 197 332 135 108 306
150 473 115z m1021 -950 c66 -19 127 -73 159 -140 24 -48 27 -64 23 -128 -4
-91 -39 -156 -110 -203 -139 -94 -309 -51 -385 95 -80 153 -11 317 156 377 48
17 97 17 157 -1z m53 -550 c149 -35 293 -147 364 -282 32 -62 67 -165 67 -200
0 -10 -70 -13 -343 -13 l-342 0 -155 156 -155 155 57 54 c130 122 326 172 507
130z m3621 -3657 c-3 -2 -70 65 -150 147 l-145 150 150 -147 c82 -81 147 -149
145 -150z m-1704 171 c3 -6 -13 -31 -37 -55 -33 -34 -46 -41 -56 -32 -11 9 -6
19 29 55 45 45 53 50 64 32z m12 -78 c13 -12 22 -30 22 -47 l0 -29 -36 37
c-20 20 -33 41 -30 47 10 15 17 14 44 -8z m-113 -21 c4 -6 -12 -31 -34 -55
-46 -50 -51 -75 -21 -105 26 -26 51 -25 84 1 15 12 29 19 32 16 14 -13 -11
-50 -42 -63 -48 -20 -99 1 -119 50 -19 44 -8 77 43 129 38 39 47 43 57 27z
m-1740 -130 c66 -66 117 -120 115 -120 -3 0 -59 54 -125 120 -66 66 -117 120
-115 120 3 0 59 -54 125 -120z m1802 58 c22 -24 43 -51 46 -60 7 -20 -10 -88
-22 -88 -16 0 -33 28 -21 35 20 13 9 46 -31 90 -22 24 -38 49 -34 55 10 17 19
12 62 -32z m-146 -145 c37 -37 47 -52 39 -63 -8 -12 -17 -7 -54 29 -35 35 -50
43 -70 39 -22 -4 -26 -2 -26 18 0 20 5 24 31 24 23 0 43 -12 80 -47z m-1269
-303 c-1 -2 -60 54 -130 125 l-127 130 130 -125 c72 -69 129 -127 127 -130z
m1208 144 c0 -7 -5 -16 -10 -19 -18 -11 -40 16 -40 48 l0 30 25 -23 c14 -13
25 -29 25 -36z m2520 -259 c35 -36 62 -65 59 -65 -2 0 -34 29 -69 65 -35 36
-62 65 -59 65 2 0 34 -29 69 -65z m-6535 -685 c66 -66 117 -120 115 -120 -3 0
-59 54 -125 120 -66 66 -117 120 -115 120 3 0 59 -54 125 -120z"/>
<path d="M5664 20065 c-3 -19 -10 -35 -15 -35 -5 0 -9 -9 -9 -19 0 -11 -6 -26
-14 -33 -7 -8 -17 -29 -21 -46 -3 -18 -11 -32 -16 -32 -5 0 -9 -9 -9 -19 0
-11 -6 -22 -12 -24 -7 -3 38 -6 101 -6 l113 -1 -7 36 c-3 20 -13 43 -21 51 -8
8 -14 23 -14 34 0 10 -4 19 -10 19 -5 0 -10 7 -10 15 0 8 -4 15 -9 15 -5 0
-12 18 -16 40 -8 49 -22 52 -31 5z"/>
<path d="M7030 20060 c0 -11 -4 -20 -9 -20 -5 0 -12 -13 -16 -30 -4 -16 -10
-30 -15 -30 -4 0 -11 -16 -14 -35 -4 -19 -11 -35 -16 -35 -6 0 -10 -7 -10 -15
0 -8 -4 -15 -10 -15 -5 0 -10 -7 -10 -15 0 -12 19 -15 111 -15 l111 0 -7 28
c-3 15 -11 28 -15 30 -5 2 -12 19 -16 38 -3 19 -10 34 -15 34 -5 0 -9 7 -9 15
0 8 -4 15 -10 15 -5 0 -12 16 -16 35 -7 37 -34 49 -34 15z"/>
<path d="M8341 20083 c0 -13 -5 -23 -11 -23 -5 0 -10 -9 -10 -20 0 -11 -4 -20
-9 -20 -5 0 -12 -16 -15 -35 -4 -19 -11 -35 -16 -35 -6 0 -10 -9 -10 -19 0
-11 -7 -26 -15 -35 -8 -8 -15 -22 -15 -30 0 -14 17 -16 110 -16 112 0 126 5
95 36 -8 9 -15 24 -15 35 0 10 -4 19 -9 19 -5 0 -13 14 -16 32 -4 17 -14 38
-21 46 -8 7 -14 22 -14 33 0 10 -4 19 -9 19 -5 0 -12 8 -14 18 -4 13 -5 11 -6
-5z"/>
<path d="M10660 20141 c0 -5 -18 -11 -41 -15 -42 -7 -99 -53 -99 -81 0 -8 -4
-15 -10 -15 -5 0 -10 -9 -10 -20 0 -11 -4 -20 -10 -20 -6 0 -10 -38 -10 -95 0
-57 4 -95 10 -95 6 0 10 -9 10 -20 0 -11 5 -20 10 -20 6 0 10 -6 10 -14 0 -23
57 -74 90 -81 16 -4 30 -11 30 -16 0 -5 38 -9 85 -9 50 0 85 4 85 10 0 6 10
10 23 10 12 0 37 14 55 30 18 17 37 30 42 30 5 0 12 16 16 35 3 19 10 35 15
35 5 0 9 50 9 110 0 61 -4 110 -9 110 -5 0 -12 14 -16 30 -4 17 -10 30 -14 30
-5 0 -20 11 -34 24 -14 13 -40 27 -57 31 -16 4 -30 11 -30 16 0 5 -34 9 -75 9
-41 0 -75 -4 -75 -9z"/>
<path d="M4720 19895 l0 -255 70 0 c39 0 70 4 70 9 0 4 28 11 63 15 37 3 66
12 73 21 6 8 16 15 23 15 19 0 61 31 61 45 0 7 5 15 10 17 6 2 14 29 17 61 3
31 10 57 14 57 5 0 9 7 9 15 0 8 -4 15 -10 15 -5 0 -10 22 -10 49 0 31 -6 55
-15 65 -8 8 -15 18 -15 22 0 15 -55 57 -93 70 -22 8 -66 14 -98 14 -33 0 -59
4 -59 10 0 6 -25 10 -55 10 l-55 0 0 -255z"/>
<path d="M8936 20134 c-3 -9 -6 -54 -6 -100 l0 -84 115 0 c63 0 115 4 115 8 0
4 14 13 30 19 28 11 30 14 30 68 0 55 -1 56 -35 71 -19 7 -57 14 -85 14 -27 0
-50 5 -50 10 0 6 -24 10 -54 10 -40 0 -55 -4 -60 -16z"/>
<path d="M8930 19751 l0 -111 100 0 c60 0 100 4 100 10 0 6 14 10 30 10 21 0
40 10 60 30 39 40 41 94 5 136 -24 28 -25 28 -160 32 l-135 4 0 -111z"/>
<path d="M11400 20020 l0 -110 85 0 c50 0 85 4 85 10 0 6 11 10 25 10 16 0 38
13 56 31 28 29 31 37 26 82 -7 72 -32 84 -179 86 l-98 1 0 -110z"/>
<path d="M4041 19078 c0 -10 -5 -18 -10 -18 -5 0 -12 -16 -16 -36 -3 -20 -13
-43 -21 -51 -8 -8 -14 -23 -14 -33 0 -10 -5 -20 -10 -22 -6 -2 -13 -20 -17
-41 l-6 -37 102 0 c94 0 101 1 101 20 0 11 -4 20 -9 20 -5 0 -12 16 -16 36 -3
20 -13 43 -21 51 -8 8 -14 23 -14 34 0 10 -4 19 -10 19 -5 0 -10 7 -10 15 0 8
-4 15 -9 15 -5 0 -12 10 -14 23 -3 14 -5 16 -6 5z"/>
<path d="M6196 19050 c-3 -22 -11 -40 -16 -40 -6 0 -10 -9 -10 -19 0 -11 -6
-26 -14 -33 -7 -8 -17 -29 -21 -46 -3 -18 -11 -32 -16 -32 -5 0 -9 -9 -9 -20
0 -19 7 -20 110 -20 91 0 110 3 110 15 0 8 -4 15 -10 15 -5 0 -10 9 -10 19 0
11 -6 26 -14 33 -7 8 -17 29 -21 46 -3 18 -11 32 -16 32 -5 0 -9 9 -9 20 0 11
-4 20 -9 20 -5 0 -12 11 -15 25 -9 37 -23 30 -30 -15z"/>
<path d="M10130 19026 l0 -116 68 0 c100 1 144 12 180 48 24 24 32 40 32 67 0
19 -4 35 -10 35 -5 0 -10 7 -10 15 0 8 -4 15 -8 15 -5 0 -18 9 -29 19 -17 16
-42 21 -122 27 l-101 7 0 -117z"/>
<path d="M7829 15015 c-194 -37 -363 -127 -499 -265 -229 -234 -316 -550 -239
-870 77 -325 337 -585 675 -676 107 -29 352 -27 458 4 323 93 558 324 652 639
36 119 44 311 19 434 -35 176 -117 330 -244 462 -119 124 -274 216 -436 257
-106 28 -285 34 -386 15z m287 -391 c130 -81 144 -271 28 -373 -178 -156 -448
15 -384 244 14 50 68 118 112 141 75 39 170 34 244 -12z m-24 -455 c196 -41
354 -205 391 -406 l7 -33 -500 0 c-568 0 -514 -10 -484 91 38 130 134 243 256
303 109 54 217 69 330 45z"/>
<path d="M13985 1413 c-4 -10 -16 -49 -26 -88 -11 -38 -25 -86 -30 -105 -6
-19 -14 -51 -18 -70 -4 -19 -13 -45 -19 -57 -7 -12 -12 -31 -12 -42 0 -17 6
-21 35 -21 31 0 35 3 35 26 0 50 16 64 73 64 l53 0 15 -42 c14 -37 20 -43 47
-46 18 -2 32 -1 32 2 0 5 -21 83 -40 151 -5 17 -13 46 -18 65 -5 19 -14 46
-20 60 -6 14 -16 46 -23 73 -12 43 -16 47 -45 47 -21 0 -34 -6 -39 -17z m75
-215 c0 -5 -16 -8 -35 -8 -39 0 -39 3 -13 90 l11 35 18 -55 c10 -30 19 -58 19
-62z"/>
<path d="M14477 1392 c-10 -10 -17 -31 -17 -45 0 -17 -5 -27 -15 -27 -10 0
-15 -11 -15 -35 0 -24 5 -35 15 -35 12 0 15 -18 15 -98 0 -83 3 -102 18 -115
22 -20 55 -22 70 -4 14 16 4 57 -13 57 -17 0 -25 33 -25 103 0 50 2 57 20 57
16 0 20 7 20 35 0 28 -4 35 -20 35 -17 0 -20 7 -20 45 0 49 -8 55 -33 27z"/>
<path d="M14648 1319 c-32 -12 -78 -97 -78 -143 1 -72 65 -156 119 -156 31 0
82 43 99 83 17 40 15 118 -4 156 -17 34 -68 71 -94 70 -8 0 -27 -5 -42 -10z
m66 -72 c13 -10 17 -27 17 -71 0 -62 -12 -86 -44 -86 -30 0 -46 29 -47 84 0
71 32 103 74 73z"/>
<path d="M14912 1308 c-19 -19 -22 -20 -22 -5 0 11 -8 17 -25 17 l-25 0 0
-145 0 -145 30 0 30 0 0 73 c0 39 3 89 6 110 6 32 10 37 34 37 36 0 52 46 24
67 -23 17 -26 17 -52 -9z"/>
<path d="M14200 1204 c0 -68 5 -124 12 -137 26 -50 68 -60 105 -25 20 18 23
19 23 5 0 -12 9 -17 30 -17 l30 0 0 145 0 145 -35 0 -34 0 -3 -112 -3 -113
-30 0 -30 0 -3 113 -3 112 -29 0 -30 0 0 -116z"/>
<path d="M15010 1280 c0 -38 2 -40 30 -40 28 0 30 2 30 40 0 38 -2 40 -30 40
-28 0 -30 -2 -30 -40z"/>
<path d="M15010 1070 c0 -38 2 -40 30 -40 28 0 30 2 30 40 0 38 -2 40 -30 40
-28 0 -30 -2 -30 -40z"/>
<path d="M13207 821 c-40 -67 3 -87 47 -21 14 22 26 42 26 45 0 3 -13 5 -28 5
-20 0 -32 -8 -45 -29z"/>
<path d="M10900 639 l0 -202 84 5 c87 6 135 26 136 59 0 8 6 21 13 27 18 19
16 187 -3 232 -8 19 -20 41 -27 48 -20 20 -71 32 -140 32 l-63 0 0 -201z m160
109 c17 -18 20 -35 20 -107 -1 -104 -10 -121 -69 -121 l-41 0 0 125 0 125 35
0 c22 0 41 -8 55 -22z"/>
<path d="M11680 805 c0 -32 2 -35 30 -35 28 0 30 3 30 35 0 32 -2 35 -30 35
-28 0 -30 -3 -30 -35z"/>
<path d="M12022 643 l3 -198 28 -3 27 -3 0 200 0 201 -30 0 -30 0 2 -197z"/>
<path d="M12240 640 l0 -200 30 0 30 0 0 85 0 85 66 0 65 0 -3 33 c-3 32 -3
32 -65 35 l-63 3 0 44 0 45 76 0 75 0 -3 33 -3 32 -102 3 -103 3 0 -201z"/>
<path d="M13750 775 c0 -36 -3 -65 -6 -65 -3 0 -12 7 -20 15 -38 38 -90 8
-119 -67 -44 -118 32 -254 116 -206 25 15 29 15 29 2 0 -11 8 -14 28 -12 l27
3 3 198 2 197 -30 0 -30 0 0 -65z m-12 -130 c15 -32 15 -75 2 -110 -24 -64
-80 -31 -80 47 0 27 5 58 10 69 15 28 54 24 68 -6z"/>
<path d="M14502 643 l3 -198 25 0 25 0 5 135 c4 96 7 122 11 90 13 -92 40
-215 48 -223 5 -5 19 -7 32 -5 25 3 31 18 49 128 23 140 28 140 29 2 l1 -133
28 3 27 3 3 198 2 198 -47 -3 c-39 -2 -48 -7 -51 -23 -1 -11 -9 -45 -17 -75
-8 -30 -17 -77 -21 -105 l-6 -50 -13 50 c-7 28 -18 85 -26 128 l-13 77 -48 0
-48 0 2 -197z"/>
<path d="M14840 639 l0 -202 86 6 c95 5 110 14 144 79 32 61 29 185 -7 249
-30 57 -59 69 -160 69 l-63 0 0 -201z m160 109 c17 -18 20 -35 20 -107 -1
-104 -10 -121 -69 -121 l-41 0 0 125 0 125 35 0 c22 0 41 -8 55 -22z"/>
<path d="M11223 720 c-29 -26 -39 -60 -22 -71 21 -13 46 -11 53 6 3 8 17 15
31 15 22 0 26 -4 23 -22 -2 -16 -14 -25 -46 -34 -59 -18 -75 -37 -75 -90 0
-71 40 -100 107 -74 16 6 27 6 31 0 4 -6 16 -10 29 -10 22 0 22 1 18 128 -3
120 -5 128 -28 150 -32 28 -92 30 -121 2z m93 -152 c-3 -7 -7 -25 -10 -39 -7
-34 -34 -45 -52 -22 -19 26 -18 31 19 53 37 23 48 25 43 8z"/>
<path d="M11430 589 l0 -150 28 3 27 3 6 110 c4 61 7 111 8 113 0 2 13 2 28 0
34 -4 41 -25 42 -140 1 -88 1 -88 27 -88 l26 0 -4 129 c-3 110 -6 132 -22 150
-25 27 -64 27 -93 -1 l-23 -21 0 21 c0 17 -6 22 -25 22 l-25 0 0 -151z"/>
<path d="M11680 590 l0 -150 30 0 30 0 0 150 0 150 -30 0 -30 0 0 -150z"/>
<path d="M11822 717 c-28 -29 -42 -77 -42 -139 0 -109 53 -157 148 -132 12 4
22 13 22 20 0 8 5 14 10 14 6 0 10 11 10 24 0 33 -39 43 -62 16 -20 -25 -37
-25 -54 -2 -27 35 -17 42 57 42 l72 0 -7 52 c-4 28 -12 61 -18 72 -29 57 -98
74 -136 33z m88 -66 c17 -33 11 -41 -30 -41 -22 0 -40 5 -40 11 0 22 22 49 40
49 11 0 24 -9 30 -19z"/>
<path d="M12530 724 c-37 -23 -50 -59 -50 -138 0 -113 39 -158 124 -142 38 7
52 20 61 57 5 22 2 27 -17 33 -33 9 -35 8 -41 -14 -7 -26 -43 -26 -57 -1 -19
36 -12 41 60 41 l70 0 0 29 c0 43 -28 114 -53 133 -27 22 -64 22 -97 2z m78
-86 c3 -26 1 -28 -32 -28 -38 0 -39 2 -30 38 5 18 13 22 33 20 20 -2 27 -9 29
-30z"/>
<path d="M12720 589 l0 -150 28 3 27 3 5 103 c5 104 15 127 46 115 16 -6 39
40 31 61 -8 20 -56 21 -63 1 -4 -8 -10 -15 -15 -15 -5 0 -9 7 -9 15 0 9 -9 15
-25 15 l-25 0 0 -151z"/>
<path d="M12880 591 l0 -151 30 0 30 0 0 89 c0 108 10 141 44 141 32 0 36 -14
36 -131 l0 -99 30 0 30 0 0 109 c0 110 -8 150 -34 177 -21 20 -66 17 -92 -7
-20 -19 -22 -19 -21 -2 2 13 -6 19 -25 21 l-28 3 0 -150z"/>
<path d="M13152 717 c-12 -13 -22 -33 -22 -44 0 -29 37 -41 54 -18 15 21 60
17 64 -6 3 -16 -36 -39 -67 -39 -28 0 -53 -35 -58 -83 -4 -36 -1 -49 16 -66
25 -25 68 -27 99 -5 20 14 22 14 22 0 0 -11 10 -16 31 -16 24 0 30 3 25 16 -3
9 -6 65 -6 124 0 104 -1 110 -25 135 -35 34 -102 35 -133 2z m84 -203 c-19
-27 -41 -31 -50 -8 -12 31 -6 45 27 59 30 13 32 12 35 -6 2 -11 -4 -31 -12
-45z"/>
<path d="M13364 727 c-2 -7 -3 -74 -2 -148 l3 -134 28 -3 27 -3 0 98 c1 104
11 133 47 133 27 0 33 -24 33 -138 l0 -93 28 3 27 3 0 127 c0 121 -1 127 -24
147 -28 25 -63 27 -85 6 -8 -8 -17 -15 -20 -15 -3 0 -6 7 -6 15 0 19 -49 20
-56 2z"/>
<path d="M13888 721 c-75 -59 -57 -259 24 -277 51 -11 96 4 113 36 20 38 19
39 -12 51 -23 9 -30 7 -45 -13 -14 -19 -21 -21 -35 -12 -10 6 -19 21 -21 33
-3 20 1 21 62 21 l66 0 0 39 c0 109 -83 176 -152 122z m82 -58 c0 -5 3 -18 6
-30 6 -21 3 -23 -30 -23 -31 0 -36 3 -36 23 0 13 3 27 7 30 9 9 53 9 53 0z"/>
<path d="M14070 705 l0 -35 50 0 50 0 -32 -52 c-17 -29 -36 -58 -42 -63 -21
-20 -36 -55 -36 -85 l0 -31 98 3 97 3 3 38 3 37 -55 0 -55 0 17 30 c9 16 20
30 25 30 4 0 7 7 7 15 0 8 5 15 10 15 6 0 10 6 10 14 0 8 5 16 11 18 6 2 13
25 16 51 l6 47 -92 0 -91 0 0 -35z"/>
<path d="M14290 480 c0 -22 5 -40 10 -40 14 0 13 -26 -2 -50 -14 -22 -8 -33
15 -24 21 8 37 56 37 110 0 42 -1 44 -30 44 -28 0 -30 -2 -30 -40z"/>
</g>
</svg>
